<svg width="200" height="200" viewBox="0 0 200 200" fill="none" xmlns="http://www.w3.org/2000/svg">
<g clip-path="url(#clip0_16_26)">
<path d="M200 100C200 44.7715 155.228 0 100 0C44.7715 0 0 44.7715 0 100C0 155.228 44.7715 200 100 200C155.228 200 200 155.228 200 100Z" fill="#1D1D1D"/>
<path d="M167.969 80.0781H93.3594V100.781H107.422V168.359C107.422 169.222 108.121 169.922 108.984 169.922H127.734C128.597 169.922 129.297 169.222 129.297 168.359V102.344C129.297 101.481 129.996 100.781 130.859 100.781H147.656H167.969C168.832 100.781 169.531 100.082 169.531 99.2188V81.6406C169.531 80.7777 168.832 80.0781 167.969 80.0781Z" fill="url(#paint0_linear_16_26)"/>
<path d="M124.609 55.0781H31.6406C30.7777 55.0781 30.0781 55.7777 30.0781 56.6406V74.2188C30.0781 75.0816 30.7777 75.7812 31.6406 75.7812H67.1875V143.359C67.1875 144.222 67.8871 144.922 68.75 144.922H87.5C88.3629 144.922 89.0625 144.222 89.0625 143.359V75.7812H124.609C125.472 75.7812 126.172 75.0816 126.172 74.2188V56.6406C126.172 55.7777 125.472 55.0781 124.609 55.0781Z" fill="#FFD500"/>
</g>
<defs>
<linearGradient id="paint0_linear_16_26" x1="93.3594" y1="80.0781" x2="169.531" y2="169.922" gradientUnits="userSpaceOnUse">
<stop offset="0.367138" stop-color="#358EF1"/>
<stop offset="0.779138" stop-color="#1F528B"/>
</linearGradient>
<clipPath id="clip0_16_26">
<rect width="200" height="200" fill="white"/>
</clipPath>
</defs>
</svg>
